<svg xmlns="http://www.w3.org/2000/svg" viewBox="0 0 128 128" fill="none">
  <defs>
    <linearGradient id="bg" x1="16" y1="8" x2="112" y2="120" gradientUnits="userSpaceOnUse">
      <stop stop-color="#10B981"/>
      <stop offset="1" stop-color="#065F46"/>
    </linearGradient>
    <linearGradient id="glass" x1="30" y1="24" x2="96" y2="104" gradientUnits="userSpaceOnUse">
      <stop stop-color="#F8FAFC" stop-opacity=".95"/>
      <stop offset="1" stop-color="#D1FAE5" stop-opacity=".76"/>
    </linearGradient>
  </defs>
  <rect x="12" y="12" width="104" height="104" rx="30" fill="#07111F"/>
  <rect x="16" y="16" width="96" height="96" rx="26" fill="url(#bg)"/>
  <path d="M36 38c0-3.314 2.686-6 6-6h44c3.314 0 6 2.686 6 6v52c0 3.314-2.686 6-6 6H42c-3.314 0-6-2.686-6-6V38Z" fill="#081423" fill-opacity=".22"/>
  <path d="M40 34c0-2.21 1.79-4 4-4h40c2.21 0 4 1.79 4 4v50c0 2.21-1.79 4-4 4H44c-2.21 0-4-1.79-4-4V34Z" fill="url(#glass)"/>
  <path d="M50 48h28" stroke="#065F46" stroke-width="8" stroke-linecap="round"/>
  <path d="M50 64h20" stroke="#10B981" stroke-width="8" stroke-linecap="round"/>
  <path d="M50 80h32" stroke="#064E3B" stroke-width="8" stroke-linecap="round"/>
  <circle cx="90" cy="42" r="7" fill="#F59E0B"/>
  <path d="M32 24c12-10 34-12 52-6" stroke="#ECFDF5" stroke-opacity=".35" stroke-width="6" stroke-linecap="round"/>
</svg>
